<svg xmlns="http://www.w3.org/2000/svg" width="50" height="50" viewBox="0 0 50 50">
    <g fill="none" fill-rule="evenodd">
        <circle cx="25" cy="25" r="25" fill="#5640E7"/>
        <path fill="#FFF" fill-rule="nonzero" d="M35.309 26.53L38 24.872l-1.191-5.14-3.156-.345-.804-.995.36-3.106L28.383 13l-2.24 2.211h-1.288L22.615 13l-4.827 2.289.363 3.103-.804.992-3.156.345L13 24.869l2.689 1.661.288 1.236-1.694 2.644 3.342 4.123 2.995-1.038 1.16.55L22.822 37h5.358l1.043-2.952 1.16-.55 2.996 1.037 3.339-4.123-1.694-2.643.286-1.239zm-2.582 5.777l-2.46-.852-2.596 1.23-.857 2.426h-2.628l-.857-2.425-2.597-1.231-2.459.852-1.64-2.023 1.39-2.17-.643-2.767-2.21-1.365.588-2.525 2.591-.284 1.796-2.218-.296-2.55 2.37-1.124 1.842 1.817h2.883l1.842-1.817 2.37 1.124-.299 2.55 1.796 2.218 2.592.284.584 2.523-2.21 1.364-.645 2.77 1.39 2.17-1.637 2.023zm-7.21-12.114c-2.622 0-4.747 2.093-4.747 4.676s2.125 4.676 4.748 4.676c2.622 0 4.747-2.093 4.747-4.676s-2.125-4.676-4.747-4.676zm0 7.679c-1.683 0-3.048-1.344-3.048-3.003 0-1.658 1.365-3.002 3.049-3.002s3.048 1.344 3.048 3.002c0 1.659-1.364 3.003-3.048 3.003z"/>
    </g>
</svg>
