<svg xmlns="http://www.w3.org/2000/svg" xmlns:xlink="http://www.w3.org/1999/xlink" width="238" height="42" viewBox="0 0 238 42">
    <defs>
        <path id="prefix__a" d="M8.963 0c1.264 0 2.448.214 3.551.64 1.103.428 2.064 1.038 2.882 1.83.819.794 1.457 1.758 1.916 2.892.73 1.805.688 1.883.688 3.825 0 1.587-.23 3.136-.688 4.649-.46 1.513-1.091 2.947-1.897 4.3-.806 1.355-1.76 2.618-2.864 3.79-1.103 1.17-2.312 2.196-3.626 3.074l-7.698-1.903c.595-.269 1.252-.66 1.971-1.172.72-.512 1.426-1.08 2.12-1.702.694-.622 1.32-1.263 1.878-1.921.558-.66.986-1.257 1.283-1.794h-.223c-.744 0-1.593-.159-2.548-.476-.954-.317-1.853-.799-2.696-1.446-.843-.646-1.555-1.476-2.138-2.489C.29 11.085 0 9.883 0 8.492c0-1.293.23-2.459.688-3.496.459-1.037 1.09-1.927 1.897-2.672C3.39 1.58 4.339 1.007 5.43.604 6.52.2 7.698 0 8.963 0z"/>
        <path id="prefix__c" d="M62.7 9.25c7.1 0 12.55 5.1 12.55 13.6v1.85h-16.4c.5 1.55 2.25 3.05 5.3 3.05 2.05 0 4.25-.75 5.45-1.7l3.7 5.55c-2.4 2.05-6.7 3-10.3 3-7.55 0-13.45-4.75-13.45-12.7 0-7 5.35-12.65 13.15-12.65zm41.55 0c5.5 0 8.9 2.5 10.25 4.55l-5.8 5.45c-.75-1.15-2.15-2.05-4.05-2.05-2.55 0-4.75 1.6-4.75 4.7s2.2 4.75 4.75 4.75c1.9 0 3.3-1 4.05-2.1l5.8 5.5c-1.35 2-4.75 4.55-10.25 4.55-7.65 0-13.55-5-13.55-12.7 0-7.65 5.9-12.65 13.55-12.65zm25.1 0c8.6 0 13.6 5.9 13.6 12.65s-5 12.7-13.6 12.7c-8.55 0-13.55-5.95-13.55-12.7 0-6.75 5-12.65 13.55-12.65zm73.3 0c7.1 0 12.55 5.1 12.55 13.6v1.85h-16.4c.5 1.55 2.25 3.05 5.3 3.05 2.05 0 4.25-.75 5.45-1.7l3.7 5.55c-2.4 2.05-6.7 3-10.3 3-7.55 0-13.45-4.75-13.45-12.7 0-7 5.35-12.65 13.15-12.65zM11.7.65l4.3 20.4L21.05.65h7.6l5.05 20.4L37.95.65H49.3L39.75 34h-10.6l-4.3-18.9-4.3 18.9H9.95L.4.65h11.3zm75.65 0V34h-9V.65h9zm91.35 8.6c4.45 0 7.45 2.25 7.45 7.25V34h-9V19.9c0-1.45-.75-2.7-2.75-2.7s-3.1 1.2-3.7 1.9V34h-9V19.9c0-1.45-.7-2.7-2.75-2.7-1.95 0-3.05 1.2-3.65 1.9V34h-9V9.85h9v2.75c1.05-1.35 4.1-3.35 8-3.35 3.4 0 5.85 1.25 6.95 4.25 1.4-2.1 4.55-4.25 8.45-4.25zm-49.35 7.95c-2.75 0-4.3 2.05-4.3 4.7 0 2.7 1.55 4.75 4.3 4.75 2.8 0 4.35-2.05 4.35-4.75 0-2.65-1.55-4.7-4.35-4.7zM62.7 16.1c-2.75 0-3.65 1.8-3.95 2.9h7.95c-.25-1.05-1.1-2.9-4-2.9zm139.95 0c-2.75 0-3.65 1.8-3.95 2.9h7.95c-.25-1.05-1.1-2.9-4-2.9z"/>
    </defs>
    <g fill="none" fill-rule="evenodd">
        <g transform="translate(220)">
            <mask id="prefix__b" fill="#fff">
                <use xlink:href="#prefix__a"/>
            </mask>
            <path fill="#FFF" d="M-5 -5L23 -5 23 30 -5 30z" mask="url(#prefix__b)"/>
        </g>
        <g transform="translate(0 7)">
            <mask id="prefix__d" fill="#fff">
                <use xlink:href="#prefix__c"/>
            </mask>
            <path fill="#FFF" d="M-4.6 -4.35L220.2 -4.35 220.2 39.6 -4.6 39.6z" mask="url(#prefix__d)"/>
        </g>
    </g>
</svg>
